<?xml version="1.0"?>
<svg xmlns="http://www.w3.org/2000/svg" width="512" height="512" viewBox="0 0 128 128"><g><path d="M63.875,63.5A10.371,10.371,0,0,0,71.9,60.156a1.75,1.75,0,1,0-2.7-2.225A6.987,6.987,0,0,1,63.875,60a6.987,6.987,0,0,1-5.326-2.07,1.75,1.75,0,0,0-2.7,2.224A10.376,10.376,0,0,0,63.875,63.5Z"/><path d="M62.768,23.859h2.463a7.4,7.4,0,0,0,7-4.992,1.749,1.749,0,1,0-3.308-1.14,3.908,3.908,0,0,1-3.173,2.6V16.652a4.6,4.6,0,0,0,0-8.52V6.313a1.75,1.75,0,0,0-3.5,0V8.132a4.6,4.6,0,0,0,0,8.52v3.673a3.906,3.906,0,0,1-3.172-2.6,1.75,1.75,0,1,0-3.309,1.139A7.4,7.4,0,0,0,62.768,23.859Zm.123-11.467A1.109,1.109,0,1,1,64,13.5,1.11,1.11,0,0,1,62.891,12.392Z"/><path d="M113.277,92.934a24.187,24.187,0,0,0-9.815-5.406,45.951,45.951,0,0,0-8.507-1.23c-3.038-.3-2.275-.09-8.676-.759A16.835,16.835,0,0,1,83.5,85.02c-.379-.266-3.193-1.363-3.669-4.275l-.966-7.552a23.646,23.646,0,0,0,7.06-9.5,46.781,46.781,0,0,0,2.257-8.542c.047-.242.1-.477.146-.718a8.3,8.3,0,0,0,1.371.125A8.554,8.554,0,0,0,91,37.548a15.476,15.476,0,0,0,2.539-7.965l4.251-6.25h0A8.246,8.246,0,0,0,98.1,14.6L94.913,9.111A18.351,18.351,0,0,0,79.088,0H48.912A18.356,18.356,0,0,0,33.086,9.11L29.9,14.6a8.248,8.248,0,0,0,.312,8.73l4.251,6.25a15.474,15.474,0,0,0,2.517,7.93A8.555,8.555,0,0,0,38.05,54.557a8.42,8.42,0,0,0,1.612-.165c.051.254.105.5.155.758A46.65,46.65,0,0,0,42.076,63.7a23.623,23.623,0,0,0,7.058,9.5l-.946,7.4c-.433,1.379-.392,2.658-3.87,4.5a28.814,28.814,0,0,1-5.277.671l-.48.04h0c-.7.057-1,.075-2.431.17a57.968,57.968,0,0,0-11.592,1.551,24.511,24.511,0,0,0-9.814,5.405,24.179,24.179,0,0,0-7.974,17.9V126.25A1.751,1.751,0,0,0,8.5,128h111a1.75,1.75,0,0,0,1.75-1.75V110.833A24.18,24.18,0,0,0,113.277,92.934ZM102.538,90.9a21.554,21.554,0,0,1,7.765,4.072v6.529a.232.232,0,0,1-.114.209.236.236,0,0,1-.237.02L92.321,94.005a2.251,2.251,0,0,1-1.346-2.061V89.485c.707.053,1.358.1,2.109.17.529.047,1.06.09,1.591.132A42.642,42.642,0,0,1,102.538,90.9ZM17.7,94.976A20.128,20.128,0,0,1,25.461,90.9a42.651,42.651,0,0,1,7.856-1.116c.534-.043,1.067-.086,1.6-.133.745-.067,1.4-.117,2.1-.17v2.459a2.251,2.251,0,0,1-1.346,2.061l-17.631,7.729a.25.25,0,0,1-.351-.229ZM81.81,88.1a8.45,8.45,0,0,0,2.105.621l-.944.562L66.04,99.376c.877-6,5.389-11.782,11.729-14.627A9.4,9.4,0,0,0,81.81,88.1ZM86.336,37.71a12.149,12.149,0,0,1-8.351,3.373H50.015A12.139,12.139,0,0,1,38.058,30.75H89.942a12.03,12.03,0,0,1-2.886,6.207C86.826,37.22,86.585,37.471,86.336,37.71ZM94.76,46a5.065,5.065,0,0,1-5.06,5.059,4.884,4.884,0,0,1-.65-.044c.7-3.61,1.55-5.785,1.718-9.961A5.067,5.067,0,0,1,94.76,46ZM32.926,16.36l3.188-5.493a14.842,14.842,0,0,1,12.8-7.37H79.088a14.841,14.841,0,0,1,12.8,7.37l3.188,5.493a4.725,4.725,0,0,1-.179,5l-4,5.886H37.107l-4-5.886A4.727,4.727,0,0,1,32.926,16.36Zm5.124,34.7a5.059,5.059,0,0,1-.82-10.052c-.108,2.082,1.134,7.394,1.711,9.972A5,5,0,0,1,38.05,51.057Zm7.269,11.321a44.049,44.049,0,0,1-2.068-7.905c-.331-1.773-1.6-7.461-2.061-9.6h0a19.242,19.242,0,0,1-.438-3.347,15.556,15.556,0,0,0,9.263,3.062H61.52l-.662,4.873A3.43,3.43,0,0,0,64.249,53.4h1.958a1.75,1.75,0,0,0,0-3.5l-1.885.053.73-5.371H77.985a16.027,16.027,0,0,0,9.262-3.06c-.219,3.469-1.742,8.772-2.5,12.949a44.137,44.137,0,0,1-2.066,7.9A20.13,20.13,0,0,1,76.1,70.9,20.628,20.628,0,0,1,64,74.927,21.139,21.139,0,0,1,51.891,70.9,20.1,20.1,0,0,1,45.319,62.378ZM56.5,77.208A23.75,23.75,0,0,0,75.62,75.4l.739,5.792c.014.105.03.21.048.316C71.182,84.225,67.048,87.084,64,93.916c-1.623-4.267-6.159-9.614-12.426-12.422a1.888,1.888,0,0,0,.067-.305l.74-5.791A23.484,23.484,0,0,0,56.5,77.208ZM45.516,88.389a12.589,12.589,0,0,0,4.739-3.626c5.56,2.647,10.524,7.433,11.7,14.613L44.116,88.739A11.5,11.5,0,0,0,45.516,88.389ZM10.25,110.833a20.613,20.613,0,0,1,3.947-12.1v2.773a3.748,3.748,0,0,0,5.256,3.435l17.631-7.73a5.749,5.749,0,0,0,3.441-5.266V90.672L62.25,103.624V124.5h-34V111.625a1.75,1.75,0,0,0-3.5,0V124.5H10.25ZM117.75,124.5h-14.5V111.625a1.75,1.75,0,0,0-3.5,0V124.5h-34V103.624L87.475,90.672v1.272a5.749,5.749,0,0,0,3.441,5.266l17.632,7.73a3.751,3.751,0,0,0,5.255-3.435V98.732a20.613,20.613,0,0,1,3.947,12.1Z"/><path d="M91.875,109.469H72.937a1.75,1.75,0,0,0-1.75,1.75v5.625a1.751,1.751,0,0,0,1.75,1.75H91.875a1.75,1.75,0,0,0,1.75-1.75v-5.625A1.749,1.749,0,0,0,91.875,109.469Zm-1.75,5.625H74.687v-2.125H90.125Z"/></g></svg>
